<svg xmlns="http://www.w3.org/2000/svg" width="1319" height="399" style="shape-rendering:geometricPrecision;text-rendering:geometricPrecision;image-rendering:optimizeQuality;fill-rule:evenodd;clip-rule:evenodd"><path fill="#801ac0" d="M607.5-.5h23c25.839 4.997 42.339 20.33 49.5 46 2.2 8.533 3.533 17.2 4 26 .978 95.021.645 190.021-1 285-2.319 17.982-12.153 29.482-29.5 34.5-14.333 2-28.667 2-43 0-20.472-6.056-30.972-19.889-31.5-41.5-.667-113-.667-226 0-339 3.297-3.067 7.131-5.233 11.5-6.5a326.03 326.03 0 0 1 17-4.5Z" style="opacity:.987"/><path fill="#801ac0" d="M1038.5-.5h22c27.46 5.623 44.29 22.29 50.5 50a156.91 156.91 0 0 1 3 20c.33 26.667.67 53.333 1 80 14.86-18.52 34.03-30.02 57.5-34.5 46.16-7.93 84.99 5.236 116.5 39.5 17.06 23.673 26.89 50.006 29.5 79v42c-3.48 38.119-19.14 70.286-47 96.5-32.86 24.314-69.2 31.314-109 21-21.25-6.917-37.42-20.084-48.5-39.5-2.48 21.475-14.31 34.308-35.5 38.5-11 .667-22 .667-33 0-20.5-3.167-32.33-15-35.5-35.5a29780.35 29780.35 0 0 1 0-346c3.3-3.067 7.13-5.233 11.5-6.5a325.503 325.503 0 0 1 17-4.5Zm119 195c35.75-1.414 56.25 15.586 61.5 51 2.77 21.358-2.73 40.192-16.5 56.5-22.66 17.636-46.32 18.97-71 4-8.88-7.548-14.38-17.048-16.5-28.5a672.888 672.888 0 0 1 0-52c8.72-17.893 22.88-28.227 42.5-31Z" style="opacity:.992"/><path fill="#801ac0" d="M429.5 398.5h-30c-31.491-2.109-60.158-12.275-86-30.5-29.533-24.895-46.033-56.728-49.5-95.5-5.439-49.566 9.728-91.4 45.5-125.5 31.056-24.074 66.389-35.908 106-35.5 39.955-.628 75.288 11.538 106 36.5 25.572 24.314 40.072 54.147 43.5 89.5 4.789 41.191-5.211 78.191-30 111-28.458 30.766-63.624 47.433-105.5 50Zm-24-205c37.534-1.948 60.034 15.386 67.5 52 3.144 24.588-4.689 44.755-23.5 60.5-24.772 15.379-49.105 14.713-73-2-18.16-17.825-24.66-39.325-19.5-64.5 6.524-25.651 22.691-40.984 48.5-46Z" style="opacity:.989"/><path fill="#801ac0" d="M-.5 269.5v-30c6.384-57.952 36.717-97.452 91-118.5 34.468-10.492 69.135-11.159 104-2 22.322 5.567 40.822 17.067 55.5 34.5 14.154 18.999 14.821 38.332 2 58-12.996 13.334-28.83 19.834-47.5 19.5-13.765-29.384-36.765-41.051-69-35-28.318 9.11-42.652 28.61-43 58.5 1.031 37.359 20.031 58.026 57 62 25.785-.458 43.619-12.458 53.5-36 1.822-1.545 3.989-2.212 6.5-2 19.931 1.042 35.431 9.709 46.5 26 8.292 17.932 6.625 34.932-5 51-14.606 17.731-33.106 29.564-55.5 35.5-35.097 8.959-70.097 8.626-105-1-43.922-15.589-72.422-45.755-85.5-90.5a285.458 285.458 0 0 1-5.5-30Z" style="opacity:.988"/><path fill="#801ac0" d="M808.5 398.5h-31c-47.476-7.814-72.476-35.814-75-84-.059-35.741 15.941-61.241 48-76.5 22.086-9.271 45.086-14.938 69-17a528.138 528.138 0 0 1 62-2.5c-2.105-14.939-10.438-24.439-25-28.5-21.011-5.19-40.677-2.19-59 9-6.689 5.348-11.855 11.848-15.5 19.5-20.534 3.717-40.034.55-58.5-9.5-9.602-6.772-14.268-16.105-14-28 1.742-24.413 13.742-41.746 36-52 20.45-8.691 41.783-13.691 64-15 31.191-2.86 62.191-1.527 93 4 25.698 4.428 47.198 16.261 64.5 35.5 11.577 15.721 18.244 33.388 20 53 .667 60.333.667 120.667 0 181-3.521 3.344-7.688 5.511-12.5 6.5-16.601 4.164-33.268 4.498-50 1-19.636-6.971-32.469-20.471-38.5-40.5-19.522 25.68-45.355 40.347-77.5 44Zm53-125h21c2.254 20.748-4.08 38.248-19 52.5-16.491 10.857-33.491 11.857-51 3-9.748-8.585-12.582-19.085-8.5-31.5 3.943-7.904 10.109-13.404 18.5-16.5 12.814-4.217 25.814-6.717 39-7.5Z" style="opacity:.99"/></svg>