<svg xmlns="http://www.w3.org/2000/svg" width="458" height="458" style="shape-rendering:geometricPrecision;text-rendering:geometricPrecision;image-rendering:optimizeQuality;fill-rule:evenodd;clip-rule:evenodd"><path fill="#78439a" d="M220.5-.5h58c28.945 1.866 56.779 8.199 83.5 19 18.295 8.422 34.961 19.755 50 34A275.67 275.67 0 0 1 428.5 75c9.328 17.664 12.328 36.498 9 56.5-2.126 9.251-6.126 17.584-12 25-19.407 20.985-43.074 32.319-71 34-3.2-.101-6.2-.768-9-2-15.694-38.616-44.527-57.616-86.5-57-32.003-.332-57.337 12.335-76 38-13.112 22.224-18.446 46.224-16 72 4.216 35.549 22.216 61.549 54 78 6.317 2.268 13.483 4.101 21.5 5.5 47.977 5.464 81.81-12.37 101.5-53.5a12.93 12.93 0 0 0 .5-5c3.326.146 6.493-.521 9.5-2 8.654 1.665 17.32 3.332 26 5 4.79 2.017 9.624 3.85 14.5 5.5a60.286 60.286 0 0 0 11.5 6.5c21.839 14.371 32.673 34.704 32.5 61a101.51 101.51 0 0 1-2.5 22 112.75 112.75 0 0 1-8 18c-14.863 21.397-33.363 38.064-55.5 50-22.732 11.135-47.065 18.801-73 23a269.659 269.659 0 0 0-21 2h-59c-56.529-3.946-104.862-25.946-145-66-28.97-32.525-47.136-70.859-54.5-115l-1 1a6370.145 6370.145 0 0 1-3.5-50c-.932-58.472 17.068-110.139 54-155 40.726-43.861 91.059-68.194 151-73Z" style="opacity:.979"/></svg>